<svg width="24" height="24" viewBox="0 0 24 24" fill="none" xmlns="http://www.w3.org/2000/svg">
<path d="M12 5.5C15.79 5.5 19.85 8.13 21.5 11.5C19.85 14.87 15.79 17.5 12 17.5C8.21 17.5 4.15 14.87 2.5 11.5C4.15 8.13 8.21 5.5 12 5.5ZM12 4C7 4 2.73 7.11 1 11.5C2.73 15.89 7 19 12 19C17 19 21.27 15.89 23 11.5C21.27 7.11 17 4 12 4ZM12 8.5C13.38 8.5 15 9.5 15 11.5C15 12.88 13.6849 14.5 12 14.5C10.3151 14.5 9 12.88 9 11.5C9 9.68544 10.62 8.5 12 8.5ZM12 7C9.52 7 7.5 9.02 7.5 11.5C7.5 13.98 9.52 16 12 16C14.48 16 16.5 13.98 16.5 11.5C16.5 9.02 14.48 7 12 7Z" fill="#3377FF"/>
</svg>
