<svg width="24" height="24" viewBox="0 0 24 24" fill="none" xmlns="http://www.w3.org/2000/svg">
<path d="M12 5.5C16.49 5.5 19.85 8.13 21.5 11.5C20.91 12.72 19.99 14.15 19 15L19.82 16.03C21.21 14.8 22.31 13.26 23 11.5C21.27 7.10995 17 3.99995 12 3.99995C10.73 3.99995 9.51 4.19995 8.36 4.56995L9.5 5.5C10 5.5 11.32 5.5 12 5.5ZM10.93 7.13995L12.5 8.5C13.5 8.5 15 10 15 11L16.35 12.56C16.43 12.22 16.49 11.86 16.49 11.49C16.5 9.00995 14.48 6.99995 12 6.99995C11.63 6.99995 11.28 7.04995 10.93 7.13995ZM2.5 3.5L5 6C3.37 7.28 1.77 9.52995 1 11.5C2.73 15.89 7 19 12 19C13.52 19 14.98 18.71 16.32 18.18L19.74 21.6L21.15 20.19L3.42 2.44995L2.5 3.5ZM9.5 11L12.5 14C12.46 14.01 12.04 14 12 14C10.62 14 9.5 12.88 9.5 11.5C9.5 11.45 9.5 11.05 9.5 11ZM6 7.13995L8.5 9.5C8.25 10.1817 8.25 10.87 8.25 11.5C8.25 13.5 9.52 15.25 12 15.25C12.63 15.25 12.8629 15.25 13.3629 15.25L15 17C14.12 17.24 12.95 17.5 12 17.5C7.5 17.5 4.5 15.5 2.5 11.5C3.2 10.07 4.79 8.05995 6 7.13995Z" fill="#007AFF"/>
</svg>
